<svg id="visual" viewBox="0 0 960 540" width="960" height="540" xmlns="http://www.w3.org/2000/svg" xmlns:xlink="http://www.w3.org/1999/xlink" version="1.1"><path d="M0 93L20 82.2C40 71.3 80 49.7 120 56C160 62.3 200 96.7 240 95.8C280 95 320 59 360 52.7C400 46.3 440 69.7 480 70.5C520 71.3 560 49.7 600 38C640 26.3 680 24.7 720 32.8C760 41 800 59 840 75.2C880 91.3 920 105.7 940 112.8L960 120L960 0L940 0C920 0 880 0 840 0C800 0 760 0 720 0C680 0 640 0 600 0C560 0 520 0 480 0C440 0 400 0 360 0C320 0 280 0 240 0C200 0 160 0 120 0C80 0 40 0 20 0L0 0Z" fill="#171717"></path><path d="M0 228L20 201C40 174 80 120 120 128C160 136 200 206 240 217.7C280 229.3 320 182.7 360 168.3C400 154 440 172 480 164.8C520 157.7 560 125.3 600 117.2C640 109 680 125 720 128.5C760 132 800 123 840 123C880 123 920 132 940 136.5L960 141L960 118L940 110.8C920 103.7 880 89.3 840 73.2C800 57 760 39 720 30.8C680 22.7 640 24.3 600 36C560 47.7 520 69.3 480 68.5C440 67.7 400 44.3 360 50.7C320 57 280 93 240 93.8C200 94.7 160 60.3 120 54C80 47.7 40 69.3 20 80.2L0 91Z" fill="#181c20"></path><path d="M0 330L20 325.5C40 321 80 312 120 322.8C160 333.7 200 364.3 240 370.7C280 377 320 359 360 350C400 341 440 341 480 344.7C520 348.3 560 355.7 600 340.3C640 325 680 287 720 301.3C760 315.7 800 382.3 840 405.8C880 429.3 920 409.7 940 399.8L960 390L960 139L940 134.5C920 130 880 121 840 121C800 121 760 130 720 126.5C680 123 640 107 600 115.2C560 123.3 520 155.7 480 162.8C440 170 400 152 360 166.3C320 180.7 280 227.3 240 215.7C200 204 160 134 120 126C80 118 40 172 20 199L0 226Z" fill="#182229"></path><path d="M0 406L20 405.2C40 404.3 80 402.7 120 410.8C160 419 200 437 240 442.3C280 447.7 320 440.3 360 437.5C400 434.7 440 436.3 480 427.3C520 418.3 560 398.7 600 394.2C640 389.7 680 400.3 720 418.3C760 436.3 800 461.7 840 469C880 476.3 920 465.7 940 460.3L960 455L960 388L940 397.8C920 407.7 880 427.3 840 403.8C800 380.3 760 313.7 720 299.3C680 285 640 323 600 338.3C560 353.7 520 346.3 480 342.7C440 339 400 339 360 348C320 357 280 375 240 368.7C200 362.3 160 331.7 120 320.8C80 310 40 319 20 323.5L0 328Z" fill="#162833"></path><path d="M0 433L20 433.8C40 434.7 80 436.3 120 442.7C160 449 200 460 240 473.5C280 487 320 503 360 512.8C400 522.7 440 526.3 480 518.3C520 510.3 560 490.7 600 476.3C640 462 680 453 720 458.3C760 463.7 800 483.3 840 495.8C880 508.3 920 513.7 940 516.3L960 519L960 453L940 458.3C920 463.7 880 474.3 840 467C800 459.7 760 434.3 720 416.3C680 398.3 640 387.7 600 392.2C560 396.7 520 416.3 480 425.3C440 434.3 400 432.7 360 435.5C320 438.3 280 445.7 240 440.3C200 435 160 417 120 408.8C80 400.7 40 402.3 20 403.2L0 404Z" fill="#122e3c"></path><path d="M0 541L20 541C40 541 80 541 120 541C160 541 200 541 240 541C280 541 320 541 360 541C400 541 440 541 480 541C520 541 560 541 600 541C640 541 680 541 720 541C760 541 800 541 840 541C880 541 920 541 940 541L960 541L960 517L940 514.3C920 511.7 880 506.3 840 493.8C800 481.3 760 461.7 720 456.3C680 451 640 460 600 474.3C560 488.7 520 508.3 480 516.3C440 524.3 400 520.7 360 510.8C320 501 280 485 240 471.5C200 458 160 447 120 440.7C80 434.3 40 432.7 20 431.8L0 431Z" fill="#0b3446"></path></svg>