<svg id="visual" viewBox="0 0 900 600" width="900" height="600" xmlns="http://www.w3.org/2000/svg" xmlns:xlink="http://www.w3.org/1999/xlink" version="1.1"><rect x="0" y="0" width="900" height="600" fill="#09283a"></rect><path d="M0 31L18.8 33.2C37.7 35.3 75.3 39.7 112.8 41.8C150.3 44 187.7 44 225.2 42.2C262.7 40.3 300.3 36.7 337.8 36.5C375.3 36.3 412.7 39.7 450.2 38.7C487.7 37.7 525.3 32.3 562.8 31.3C600.3 30.3 637.7 33.7 675.2 34.7C712.7 35.7 750.3 34.3 787.8 33.5C825.3 32.7 862.7 32.3 881.3 32.2L900 32L900 0L881.3 0C862.7 0 825.3 0 787.8 0C750.3 0 712.7 0 675.2 0C637.7 0 600.3 0 562.8 0C525.3 0 487.7 0 450.2 0C412.7 0 375.3 0 337.8 0C300.3 0 262.7 0 225.2 0C187.7 0 150.3 0 112.8 0C75.3 0 37.7 0 18.8 0L0 0Z" fill="#093f50"></path><path d="M0 32L18.8 30.7C37.7 29.3 75.3 26.7 112.8 26.8C150.3 27 187.7 30 225.2 31.5C262.7 33 300.3 33 337.8 34C375.3 35 412.7 37 450.2 36.8C487.7 36.7 525.3 34.3 562.8 33C600.3 31.7 637.7 31.3 675.2 31.5C712.7 31.7 750.3 32.3 787.8 32C825.3 31.7 862.7 30.3 881.3 29.7L900 29L900 0L881.3 0C862.7 0 825.3 0 787.8 0C750.3 0 712.7 0 675.2 0C637.7 0 600.3 0 562.8 0C525.3 0 487.7 0 450.2 0C412.7 0 375.3 0 337.8 0C300.3 0 262.7 0 225.2 0C187.7 0 150.3 0 112.8 0C75.3 0 37.7 0 18.8 0L0 0Z" fill="#015d6d"></path><path d="M0 28L18.8 26.7C37.7 25.3 75.3 22.7 112.8 23C150.3 23.3 187.7 26.7 225.2 28.2C262.7 29.7 300.3 29.3 337.8 27C375.3 24.7 412.7 20.3 450.2 19.2C487.7 18 525.3 20 562.8 20.5C600.3 21 637.7 20 675.2 20.8C712.7 21.7 750.3 24.3 787.8 24.5C825.3 24.7 862.7 22.3 881.3 21.2L900 20L900 0L881.3 0C862.7 0 825.3 0 787.8 0C750.3 0 712.7 0 675.2 0C637.7 0 600.3 0 562.8 0C525.3 0 487.7 0 450.2 0C412.7 0 375.3 0 337.8 0C300.3 0 262.7 0 225.2 0C187.7 0 150.3 0 112.8 0C75.3 0 37.7 0 18.8 0L0 0Z" fill="#007d86"></path><path d="M0 22L18.8 20.8C37.7 19.7 75.3 17.3 112.8 16.5C150.3 15.7 187.7 16.3 225.2 15.7C262.7 15 300.3 13 337.8 13.7C375.3 14.3 412.7 17.7 450.2 19.2C487.7 20.7 525.3 20.3 562.8 19.2C600.3 18 637.7 16 675.2 14.7C712.7 13.3 750.3 12.7 787.8 13.8C825.3 15 862.7 18 881.3 19.5L900 21L900 0L881.3 0C862.7 0 825.3 0 787.8 0C750.3 0 712.7 0 675.2 0C637.7 0 600.3 0 562.8 0C525.3 0 487.7 0 450.2 0C412.7 0 375.3 0 337.8 0C300.3 0 262.7 0 225.2 0C187.7 0 150.3 0 112.8 0C75.3 0 37.7 0 18.8 0L0 0Z" fill="#1b9e9a"></path><path d="M0 6L18.8 7C37.7 8 75.3 10 112.8 10.2C150.3 10.3 187.7 8.7 225.2 7.7C262.7 6.7 300.3 6.3 337.8 7C375.3 7.7 412.7 9.3 450.2 10.5C487.7 11.7 525.3 12.3 562.8 11.5C600.3 10.7 637.7 8.3 675.2 7C712.7 5.7 750.3 5.3 787.8 5.5C825.3 5.7 862.7 6.3 881.3 6.7L900 7L900 0L881.3 0C862.7 0 825.3 0 787.8 0C750.3 0 712.7 0 675.2 0C637.7 0 600.3 0 562.8 0C525.3 0 487.7 0 450.2 0C412.7 0 375.3 0 337.8 0C300.3 0 262.7 0 225.2 0C187.7 0 150.3 0 112.8 0C75.3 0 37.7 0 18.8 0L0 0Z" fill="#42bfa8"></path></svg>